<svg width="71" height="75" viewBox="0 0 71 75" fill="none" xmlns="http://www.w3.org/2000/svg">
<path d="M19.9609 40.9823C19.9609 39.656 19.9763 38.3272 19.9584 37.0009C19.9149 33.6456 21.0316 30.7349 23.5232 28.4913C24.7421 27.395 25.0795 26.2987 24.9747 24.6683C24.4099 16.0309 27.0829 8.43104 32.7177 1.86356C33.0908 1.42913 33.4843 1.01004 33.8855 0.603725C34.6752 -0.198684 35.3038 -0.203795 36.0909 0.603725C39.5535 4.14557 42.0629 8.27005 43.5809 12.9797C44.9889 17.3495 45.4591 21.8164 44.9097 26.3856C44.8816 26.6232 45.0043 26.9401 45.1678 27.1267C45.592 27.6173 46.075 28.0619 46.5375 28.5194C48.8809 30.8346 50.0334 33.6354 50.018 36.9293C50.0027 39.8962 50.018 42.8631 50.0129 45.8325C50.0129 47.3504 49.1901 47.8641 47.8408 47.1945C45.8118 46.1877 43.7955 45.1553 41.7537 44.1766C41.4471 44.0284 40.9948 43.9977 40.6728 44.0999C36.8498 45.3265 33.0422 45.3137 29.2244 44.0718C28.9459 43.9823 28.5523 44.0181 28.2865 44.1485C26.2243 45.1451 24.1851 46.1851 22.1305 47.1971C20.7761 47.8666 19.9686 47.3504 19.9635 45.8274C19.9584 44.2123 19.9635 42.5999 19.9635 40.9848L19.9609 40.9823ZM39.9624 36.8552C39.7222 36.9012 39.5254 36.9523 39.3235 36.9728C37.6446 37.1517 35.9657 37.328 34.2842 37.4941C34.0797 37.5145 33.8651 37.4915 33.6606 37.4583C32.9119 37.3382 32.4468 36.8067 32.4903 36.1346C32.5337 35.4523 33.0499 35.0409 33.8114 34.9744C35.5696 34.8236 37.3251 34.655 39.0782 34.4506C40.1642 34.3253 40.8798 33.7861 40.9769 32.5876C41.0126 32.1302 41.2248 31.6881 41.35 31.2384C44.1686 21.0703 42.275 11.8911 35.5644 3.72136C35.3907 3.50926 35.1939 3.31505 34.9895 3.09528C34.8004 3.29461 34.67 3.41982 34.5525 3.55526C29.8479 9.01879 27.4688 15.3665 27.3461 22.5601C27.2823 26.3294 28.1664 29.9402 29.2704 33.5025C29.8019 35.2146 30.0856 36.9293 29.9885 38.7181C29.9348 39.6994 29.9783 40.6858 29.9783 41.6697C33.3693 42.7813 36.6735 42.7941 39.9649 41.6748V36.8552H39.9624ZM25.6621 29.8891C24.1978 31.1643 23.0019 32.6055 22.8153 34.4199C22.4883 37.6295 22.4704 40.8724 22.3221 44.0948C22.5726 44.1127 22.6314 44.1357 22.6697 44.1178C23.72 43.6041 24.7268 42.9704 25.8231 42.5947C27.2056 42.1194 27.6784 41.3094 27.4969 39.8809C27.3334 38.6031 27.5582 37.2641 27.3053 36.0119C26.8989 33.9829 26.2422 32.005 25.6596 29.8942L25.6621 29.8891ZM47.4881 44.22C47.4881 41.386 47.5418 38.7054 47.4677 36.0273C47.4217 34.3586 46.8237 32.8202 45.7939 31.4862C45.362 30.9292 44.8611 30.4283 44.3347 29.8354C43.8109 31.7137 43.3279 33.413 42.8628 35.115C42.7197 35.6388 42.5331 36.1729 42.5153 36.707C42.4693 38.2147 42.4871 39.725 42.5127 41.2352C42.5153 41.4525 42.6379 41.777 42.8015 41.8613C44.3168 42.6535 45.8552 43.4048 47.4881 44.22Z" fill="url(#paint0_linear_1193_3029)"/>
<path d="M67.5305 72.9457C67.7042 66.0793 60.7918 61.7222 54.7558 64.7836C53.7158 65.3126 53.3657 65.2436 52.6016 64.339C51.6433 63.2018 50.4243 62.5988 48.9396 62.5119C47.9379 62.4531 47.5571 62.0519 47.4984 61.0527C47.3271 58.1421 45.9523 55.9878 43.3994 54.5747C42.4565 54.0534 42.206 53.2228 42.8066 52.5482C43.333 51.9579 43.9463 52.032 44.58 52.3719C47.4396 53.9154 49.1926 56.2868 49.8238 59.4581C49.9235 59.9564 50.1458 60.0791 50.5674 60.2682C51.6484 60.7486 52.7012 61.3134 53.7106 61.9318C54.0633 62.1464 54.2856 62.2231 54.6792 62.0723C62.3889 59.154 70.3133 64.8169 70.0297 73.0326C70.0169 73.3699 69.9888 73.7124 69.907 74.0369C69.7384 74.7115 69.2631 75.0591 68.5833 74.985C67.9061 74.9083 67.5126 74.4764 67.487 73.7763C67.4742 73.467 67.5177 73.1527 67.5305 72.9483V72.9457Z" fill="url(#paint1_linear_1193_3029)"/>
<path d="M17.5435 61.0655C18.3382 57.6105 20.2931 55.257 23.6356 54.1709C24.3691 53.9332 25.1612 53.8387 25.9355 53.7774C26.8504 53.7033 27.433 54.2016 27.4663 54.9554C27.4969 55.7067 26.9501 56.205 26.0327 56.2587C23.2089 56.4248 20.955 58.1574 20.2216 60.792C20.0504 61.4079 19.989 62.0723 19.9916 62.7163C19.9967 63.3449 20.0171 63.9276 19.3834 64.2777C18.765 64.6175 18.2437 64.3416 17.7121 64.0145C13.5672 61.4769 8.34644 62.1848 5.08058 65.7445C3.29688 67.6866 2.4127 69.9967 2.43059 72.6416C2.43059 72.9278 2.45359 73.2141 2.46381 73.5003C2.48937 74.3742 2.06261 74.939 1.33431 74.9952C0.623894 75.0514 -0.0175226 74.5378 0.000365489 73.6843C0.0284753 72.2379 0.0131433 70.7429 0.36835 69.3579C2.21082 62.1541 9.84904 58.2238 16.8331 60.7972C17.0528 60.8789 17.27 60.9607 17.5409 61.0655H17.5435Z" fill="url(#paint2_linear_1193_3029)"/>
<path d="M32.8429 68.6884C34.1794 66.9507 35.8481 65.7726 37.9563 65.2513C43.2563 63.9378 48.6151 67.9856 48.748 73.4108C48.771 74.3793 48.3161 74.9773 47.5341 74.9977C46.7854 75.0156 46.3024 74.4713 46.2488 73.5462C46.0801 70.6407 44.1175 68.2616 41.3934 67.6662C38.5748 67.0503 35.8864 68.2897 34.4707 70.8579C33.814 72.0488 33.1163 72.1893 32.1146 71.3358C29.1298 68.7906 24.9543 70.0453 23.8631 73.8197C23.5462 74.9134 22.57 75.3376 21.8034 74.7039C21.2897 74.2771 21.2974 73.7328 21.4507 73.1374C22.6467 68.5069 27.8649 66.1534 32.1325 68.3255C32.3599 68.4405 32.5874 68.5606 32.8403 68.6909L32.8429 68.6884Z" fill="url(#paint3_linear_1193_3029)"/>
<path d="M32.48 56.3354C32.48 58.7043 32.4826 61.0731 32.48 63.442C32.48 64.4259 32.0073 64.9983 31.2279 64.9983C30.4485 64.9983 29.9808 64.4233 29.9808 63.4395C29.9783 58.648 29.9783 53.8591 29.9808 49.0677C29.9808 48.0838 30.451 47.5114 31.233 47.5114C32.0124 47.5114 32.48 48.0838 32.4826 49.0702C32.4877 51.4902 32.4826 53.9128 32.4826 56.3328L32.48 56.3354Z" fill="url(#paint4_linear_1193_3029)"/>
<path d="M37.4913 52.4358C37.4913 51.2654 37.481 50.0924 37.4938 48.922C37.504 48.0634 37.9998 47.5191 38.7332 47.514C39.4692 47.5089 39.9828 48.0532 39.9879 48.9067C40.0007 51.3011 40.0007 53.6956 39.9879 56.09C39.9828 56.9487 39.4819 57.493 38.7485 57.4981C38.0151 57.5032 37.504 56.9563 37.4938 56.1054C37.4785 54.8813 37.4887 53.6598 37.4887 52.4358H37.4913Z" fill="url(#paint5_linear_1193_3029)"/>
<path d="M38.7485 60.0126C39.4283 60.0178 39.9905 60.5851 39.9854 61.2622C39.9803 61.9394 39.4078 62.5042 38.7306 62.4991C38.0509 62.494 37.4887 61.9241 37.4938 61.2469C37.4989 60.5672 38.0662 60.0075 38.746 60.0126H38.7485Z" fill="url(#paint6_linear_1193_3029)"/>
<path d="M34.9793 18.7397C34.992 19.4143 34.4324 19.9919 33.7552 20.0046C33.078 20.0174 32.5005 19.4603 32.4903 18.7806C32.4775 18.1008 33.032 17.5284 33.7143 17.5182C34.3915 17.5054 34.969 18.0625 34.9818 18.7397H34.9793Z" fill="url(#paint7_linear_1193_3029)"/>
<path d="M33.7245 22.5166C34.4043 22.5115 34.9741 23.0737 34.9793 23.7509C34.9844 24.4256 34.4196 24.998 33.7424 25.0031C33.0652 25.0082 32.4954 24.446 32.4903 23.7688C32.4851 23.0891 33.0448 22.5217 33.7271 22.5166H33.7245Z" fill="url(#paint8_linear_1193_3029)"/>
<defs>
<linearGradient id="paint0_linear_1193_3029" x1="35.0109" y1="119.271" x2="35.0109" y2="5.26825" gradientUnits="userSpaceOnUse">
<stop stop-color="#D9E9F8"/>
<stop offset="0.01" stop-color="#D5E5F5"/>
<stop offset="0.21" stop-color="#9AAECD"/>
<stop offset="0.4" stop-color="#6A81AC"/>
<stop offset="0.58" stop-color="#445E93"/>
<stop offset="0.74" stop-color="#294481"/>
<stop offset="0.89" stop-color="#183575"/>
<stop offset="1" stop-color="#133072"/>
</linearGradient>
<linearGradient id="paint1_linear_1193_3029" x1="35.0229" y1="76.7014" x2="35.0229" y2="-159.849" gradientUnits="userSpaceOnUse">
<stop stop-color="#D9E9F8"/>
<stop offset="0.01" stop-color="#D5E5F5"/>
<stop offset="0.21" stop-color="#9AAECD"/>
<stop offset="0.4" stop-color="#6A81AC"/>
<stop offset="0.58" stop-color="#445E93"/>
<stop offset="0.74" stop-color="#294481"/>
<stop offset="0.89" stop-color="#183575"/>
<stop offset="1" stop-color="#133072"/>
</linearGradient>
<linearGradient id="paint2_linear_1193_3029" x1="35.0175" y1="76.8179" x2="35.0175" y2="-178.178" gradientUnits="userSpaceOnUse">
<stop stop-color="#D9E9F8"/>
<stop offset="0.01" stop-color="#D5E5F5"/>
<stop offset="0.21" stop-color="#9AAECD"/>
<stop offset="0.4" stop-color="#6A81AC"/>
<stop offset="0.58" stop-color="#445E93"/>
<stop offset="0.74" stop-color="#294481"/>
<stop offset="0.89" stop-color="#183575"/>
<stop offset="1" stop-color="#133072"/>
</linearGradient>
<linearGradient id="paint3_linear_1193_3029" x1="35.0233" y1="78.8553" x2="35.0233" y2="-462.595" gradientUnits="userSpaceOnUse">
<stop stop-color="#D9E9F8"/>
<stop offset="0.01" stop-color="#D5E5F5"/>
<stop offset="0.21" stop-color="#9AAECD"/>
<stop offset="0.4" stop-color="#6A81AC"/>
<stop offset="0.58" stop-color="#445E93"/>
<stop offset="0.74" stop-color="#294481"/>
<stop offset="0.89" stop-color="#183575"/>
<stop offset="1" stop-color="#133072"/>
</linearGradient>
<linearGradient id="paint4_linear_1193_3029" x1="34.9779" y1="120.101" x2="34.9779" y2="-189.467" gradientUnits="userSpaceOnUse">
<stop stop-color="#D9E9F8"/>
<stop offset="0.01" stop-color="#D5E5F5"/>
<stop offset="0.21" stop-color="#9AAECD"/>
<stop offset="0.4" stop-color="#6A81AC"/>
<stop offset="0.58" stop-color="#445E93"/>
<stop offset="0.74" stop-color="#294481"/>
<stop offset="0.89" stop-color="#183575"/>
<stop offset="1" stop-color="#133072"/>
</linearGradient>
<linearGradient id="paint5_linear_1193_3029" x1="35.074" y1="210.333" x2="35.074" y2="-331.863" gradientUnits="userSpaceOnUse">
<stop stop-color="#D9E9F8"/>
<stop offset="0.01" stop-color="#D5E5F5"/>
<stop offset="0.21" stop-color="#9AAECD"/>
<stop offset="0.4" stop-color="#6A81AC"/>
<stop offset="0.58" stop-color="#445E93"/>
<stop offset="0.74" stop-color="#294481"/>
<stop offset="0.89" stop-color="#183575"/>
<stop offset="1" stop-color="#133072"/>
</linearGradient>
<linearGradient id="paint6_linear_1193_3029" x1="35.0544" y1="467.563" x2="35.0544" y2="-1709.54" gradientUnits="userSpaceOnUse">
<stop stop-color="#D9E9F8"/>
<stop offset="0.01" stop-color="#D5E5F5"/>
<stop offset="0.21" stop-color="#9AAECD"/>
<stop offset="0.4" stop-color="#6A81AC"/>
<stop offset="0.58" stop-color="#445E93"/>
<stop offset="0.74" stop-color="#294481"/>
<stop offset="0.89" stop-color="#183575"/>
<stop offset="1" stop-color="#133072"/>
</linearGradient>
<linearGradient id="paint7_linear_1193_3029" x1="34.9139" y1="1749.06" x2="34.9139" y2="-427.72" gradientUnits="userSpaceOnUse">
<stop stop-color="#D9E9F8"/>
<stop offset="0.01" stop-color="#D5E5F5"/>
<stop offset="0.21" stop-color="#9AAECD"/>
<stop offset="0.4" stop-color="#6A81AC"/>
<stop offset="0.58" stop-color="#445E93"/>
<stop offset="0.74" stop-color="#294481"/>
<stop offset="0.89" stop-color="#183575"/>
<stop offset="1" stop-color="#133072"/>
</linearGradient>
<linearGradient id="paint8_linear_1193_3029" x1="33.7322" y1="75.514" x2="33.7322" y2="3.33545" gradientUnits="userSpaceOnUse">
<stop stop-color="#D9E9F8"/>
<stop offset="0.01" stop-color="#D5E5F5"/>
<stop offset="0.21" stop-color="#9AAECD"/>
<stop offset="0.4" stop-color="#6A81AC"/>
<stop offset="0.58" stop-color="#445E93"/>
<stop offset="0.74" stop-color="#294481"/>
<stop offset="0.89" stop-color="#183575"/>
<stop offset="1" stop-color="#133072"/>
</linearGradient>
</defs>
</svg>
