<svg width="80" height="63" viewBox="0 0 80 63" fill="none" xmlns="http://www.w3.org/2000/svg">
<path d="M39.031 11.6185C46.638 11.7313 52.8938 13.3286 58.8753 16.0463C66.4926 19.5049 73.215 24.2634 79.1735 30.1193C80.2708 31.1961 80.2785 31.814 79.1786 32.878C71.146 40.6619 62.0186 46.646 51.1684 49.7483C47.2303 50.8738 43.1973 51.4686 39.1028 51.3481C33.6495 51.1866 28.4038 49.9534 23.3555 47.9023C14.7486 44.4026 7.25703 39.2236 0.660201 32.7165C-0.216641 31.8499 -0.221768 31.1577 0.655074 30.2962C8.37744 22.7354 17.1741 16.9077 27.55 13.6234C31.2804 12.4415 36.3492 11.6185 39.0259 11.621L39.031 11.6185ZM40.0514 14.5438C31.3933 14.3156 23.1094 21.4175 23.0017 31.2705C22.8915 41.4593 31.2881 48.4535 39.9079 48.4997C48.6404 48.5484 56.9371 41.5388 57.0012 31.6115C57.0678 21.5355 48.6712 14.3387 40.0489 14.5438H40.0514ZM53.7938 17.1103C57.7139 21.1355 59.8317 25.9171 59.8214 31.5448C59.8086 37.1417 57.6754 41.8977 53.7656 45.9076C62.4442 42.7874 69.8692 37.7622 76.5891 31.4961C69.8333 25.2326 62.4365 20.2202 53.7938 17.1103ZM3.41123 31.5038C10.1927 37.775 17.592 42.8028 26.2271 45.8973C22.289 41.8721 20.1738 37.093 20.1789 31.4705C20.184 25.8736 22.3069 21.1124 26.2194 17.1026C17.5663 20.2202 10.1593 25.2428 3.41379 31.5038H3.41123Z" fill="url(#paint0_linear_1193_3023)"/>
<path d="M41.4128 5.0729C41.4128 5.88052 41.4231 6.6907 41.4103 7.49832C41.3949 8.43413 40.8334 9.05715 40.0232 9.06997C39.2156 9.08279 38.608 8.45464 38.5977 7.53678C38.5823 5.84206 38.5823 4.14735 38.5977 2.45263C38.6054 1.52451 39.1951 0.922002 40.0207 0.932258C40.8437 0.942513 41.3923 1.54759 41.4103 2.49109C41.4257 3.34998 41.4128 4.21144 41.4128 5.0729Z" fill="url(#paint1_linear_1193_3023)"/>
<path d="M38.5926 57.968C38.5926 57.1604 38.5849 56.3502 38.5926 55.5426C38.6054 54.5658 39.1874 53.9197 40.0181 53.9325C40.8283 53.9453 41.3975 54.5683 41.4052 55.5016C41.418 57.1707 41.418 58.8397 41.4052 60.5063C41.3975 61.4498 40.8411 62.0548 40.0181 62.0676C39.1643 62.0805 38.6028 61.4626 38.59 60.4704C38.5798 59.6371 38.59 58.8013 38.59 57.968H38.5926Z" fill="url(#paint2_linear_1193_3023)"/>
<path d="M25.6887 4.84728C25.8809 4.9883 26.3835 5.18828 26.6142 5.55747C27.5526 7.05733 28.4243 8.60078 29.2858 10.1468C29.6909 10.8749 29.4627 11.6415 28.8012 12.0517C28.1474 12.4543 27.3167 12.2953 26.8911 11.5877C25.9527 10.0263 25.0297 8.45208 24.1734 6.84454C23.6786 5.91642 24.376 4.86523 25.6912 4.84985L25.6887 4.84728Z" fill="url(#paint3_linear_1193_3023)"/>
<path d="M56.0141 6.38047C55.932 6.57533 55.8295 6.89837 55.6679 7.18553C54.886 8.57002 54.0912 9.94681 53.2912 11.321C52.7528 12.244 51.9606 12.5132 51.2068 12.0569C50.4787 11.6159 50.3274 10.8262 50.8299 9.94425C51.6555 8.49566 52.4913 7.05221 53.3323 5.61131C53.704 4.97035 54.2783 4.69858 54.9911 4.90112C55.6295 5.08316 55.9602 5.57029 56.0166 6.38047H56.0141Z" fill="url(#paint4_linear_1193_3023)"/>
<path d="M29.5139 52.2711C29.4191 52.489 29.3165 52.8121 29.1524 53.1018C28.3679 54.4863 27.5731 55.8631 26.7706 57.2373C26.245 58.1347 25.5015 58.4064 24.7529 58.0014C23.9657 57.5758 23.7965 56.7707 24.3221 55.8477C25.1477 54.3966 25.9861 52.9531 26.8245 51.5096C27.2013 50.8636 27.7808 50.6123 28.4884 50.8123C29.1345 50.9943 29.4396 51.4968 29.5139 52.2737V52.2711Z" fill="url(#paint5_linear_1193_3023)"/>
<path d="M54.2835 58.1552C54.0963 58.0116 53.6066 57.7988 53.3733 57.4245C52.4503 55.9426 51.594 54.4222 50.7428 52.8967C50.3146 52.1275 50.5402 51.3353 51.235 50.9353C51.9273 50.5354 52.7169 50.7431 53.1784 51.5148C54.0732 53.0146 54.9578 54.5196 55.7936 56.0503C56.3448 57.0579 55.6705 58.168 54.2809 58.1526L54.2835 58.1552Z" fill="url(#paint6_linear_1193_3023)"/>
<path d="M49.8941 31.5884V38.557C49.8941 39.1749 49.6608 39.7697 49.2403 40.2209C46.9098 42.7258 43.6434 44.1488 40.2206 44.1488H39.7181C32.9162 44.1488 27.4039 38.6339 27.4039 31.8345V31.3448C27.4039 24.5429 32.9188 19.028 39.7207 19.028H40.2232C42.6384 19.028 44.9997 19.7408 47.0149 21.0714C47.6328 21.4893 48.0251 22.1713 48.0789 22.9174C48.1302 23.6635 47.8379 24.3916 47.2841 24.8916C46.4457 25.6454 45.2048 25.7351 44.2664 25.1121C43.064 24.3327 41.659 23.9173 40.2258 23.9148H39.7233C35.6211 23.9148 32.2932 27.2401 32.2932 31.3448V31.8345C32.2932 35.9367 35.6185 39.2621 39.7233 39.2621H40.2258C41.9769 39.2698 43.6742 38.6519 45.01 37.5161V34.0318H42.4615C41.1129 34.0318 40.0181 32.937 40.0181 31.5884C40.0181 30.2398 41.1129 29.145 42.4615 29.145H47.4533C48.8019 29.145 49.8967 30.2398 49.8967 31.5884H49.8941Z" fill="url(#paint7_linear_1193_3023)"/>
<defs>
<linearGradient id="paint0_linear_1193_3023" x1="40.0027" y1="-16.1876" x2="40.0027" y2="66.1536" gradientUnits="userSpaceOnUse">
<stop stop-color="#133072"/>
<stop offset="0.14" stop-color="#173274"/>
<stop offset="0.28" stop-color="#233A7D"/>
<stop offset="0.43" stop-color="#38488C"/>
<stop offset="0.58" stop-color="#555AA0"/>
<stop offset="0.73" stop-color="#7A72BB"/>
<stop offset="0.87" stop-color="#A890DB"/>
<stop offset="1" stop-color="#D5ADFB"/>
</linearGradient>
<linearGradient id="paint1_linear_1193_3023" x1="39.9474" y1="-2.399" x2="39.9474" y2="399.744" gradientUnits="userSpaceOnUse">
<stop stop-color="#133072"/>
<stop offset="0.14" stop-color="#173274"/>
<stop offset="0.28" stop-color="#233A7D"/>
<stop offset="0.43" stop-color="#38488C"/>
<stop offset="0.58" stop-color="#555AA0"/>
<stop offset="0.73" stop-color="#7A72BB"/>
<stop offset="0.87" stop-color="#A890DB"/>
<stop offset="1" stop-color="#D5ADFB"/>
</linearGradient>
<linearGradient id="paint2_linear_1193_3023" x1="40.0735" y1="-400.678" x2="40.0735" y2="1.58859" gradientUnits="userSpaceOnUse">
<stop stop-color="#133072"/>
<stop offset="0.14" stop-color="#173274"/>
<stop offset="0.28" stop-color="#233A7D"/>
<stop offset="0.43" stop-color="#38488C"/>
<stop offset="0.58" stop-color="#555AA0"/>
<stop offset="0.73" stop-color="#7A72BB"/>
<stop offset="0.87" stop-color="#A890DB"/>
<stop offset="1" stop-color="#D5ADFB"/>
</linearGradient>
<linearGradient id="paint3_linear_1193_3023" x1="39.994" y1="-34.9723" x2="39.994" y2="405.998" gradientUnits="userSpaceOnUse">
<stop stop-color="#133072"/>
<stop offset="0.14" stop-color="#173274"/>
<stop offset="0.28" stop-color="#233A7D"/>
<stop offset="0.43" stop-color="#38488C"/>
<stop offset="0.58" stop-color="#555AA0"/>
<stop offset="0.73" stop-color="#7A72BB"/>
<stop offset="0.87" stop-color="#A890DB"/>
<stop offset="1" stop-color="#D5ADFB"/>
</linearGradient>
<linearGradient id="paint4_linear_1193_3023" x1="39.9579" y1="-34.7872" x2="39.9579" y2="405.13" gradientUnits="userSpaceOnUse">
<stop stop-color="#133072"/>
<stop offset="0.14" stop-color="#173274"/>
<stop offset="0.28" stop-color="#233A7D"/>
<stop offset="0.43" stop-color="#38488C"/>
<stop offset="0.58" stop-color="#555AA0"/>
<stop offset="0.73" stop-color="#7A72BB"/>
<stop offset="0.87" stop-color="#A890DB"/>
<stop offset="1" stop-color="#D5ADFB"/>
</linearGradient>
<linearGradient id="paint5_linear_1193_3023" x1="39.981" y1="-412.067" x2="39.981" y2="27.8413" gradientUnits="userSpaceOnUse">
<stop stop-color="#133072"/>
<stop offset="0.14" stop-color="#173274"/>
<stop offset="0.28" stop-color="#233A7D"/>
<stop offset="0.43" stop-color="#38488C"/>
<stop offset="0.58" stop-color="#555AA0"/>
<stop offset="0.73" stop-color="#7A72BB"/>
<stop offset="0.87" stop-color="#A890DB"/>
<stop offset="1" stop-color="#D5ADFB"/>
</linearGradient>
<linearGradient id="paint6_linear_1193_3023" x1="39.9959" y1="-413.136" x2="39.9959" y2="27.9889" gradientUnits="userSpaceOnUse">
<stop stop-color="#133072"/>
<stop offset="0.14" stop-color="#173274"/>
<stop offset="0.28" stop-color="#233A7D"/>
<stop offset="0.43" stop-color="#38488C"/>
<stop offset="0.58" stop-color="#555AA0"/>
<stop offset="0.73" stop-color="#7A72BB"/>
<stop offset="0.87" stop-color="#A890DB"/>
<stop offset="1" stop-color="#D5ADFB"/>
</linearGradient>
<linearGradient id="paint7_linear_1193_3023" x1="38.649" y1="0.488723" x2="38.649" y2="54.0197" gradientUnits="userSpaceOnUse">
<stop stop-color="#133072"/>
<stop offset="0.14" stop-color="#173274"/>
<stop offset="0.28" stop-color="#233A7D"/>
<stop offset="0.43" stop-color="#38488C"/>
<stop offset="0.58" stop-color="#555AA0"/>
<stop offset="0.73" stop-color="#7A72BB"/>
<stop offset="0.87" stop-color="#A890DB"/>
<stop offset="1" stop-color="#D5ADFB"/>
</linearGradient>
</defs>
</svg>
